<?xml version="1.0" encoding="utf-8"?>
<!-- Generator: Adobe Illustrator 24.3.0, SVG Export Plug-In . SVG Version: 6.00 Build 0)  -->
<svg version="1.1" id="Layer_1" xmlns="http://www.w3.org/2000/svg" xmlns:xlink="http://www.w3.org/1999/xlink" x="0px" y="0px"
	 viewBox="0 0 400 400" style="enable-background:new 0 0 400 400;" xml:space="preserve">
<style type="text/css">
	.st0{fill:#78BE20;}
	.st1{fill:#00C1D5;}
	.st2{fill:#EC7700;}
	.st3{fill:#1D428A;}
</style>
<polygon class="st0" points="189.3,0.8 189.3,19.2 41.3,104.6 41.3,274.5 25.3,283.6 25.3,95.4 "/>
<polygon class="st1" points="362.3,229.7 378.3,243.7 378.3,95.4 214.3,0.8 214.3,19.2 362.3,104.6 "/>
<polygon class="st2" points="236.9,362.1 201.8,382.3 53,296.5 36.9,305.7 201.8,400.8 268.9,362.1 "/>
<path class="st3" d="M316.2,131.2L214.3,72.4V54l117.9,68v81.4l-16-14V131.2z M87.4,131.2l101.9-58.8V54L71.4,122v135.3l16-9.1
	L87.4,131.2z M156.4,303l-57.1-32.9l-16.1,9.2l73.2,42.2V303z"/>
<polygon class="st0" points="400,303.4 335.3,364 324.4,352.3 367.2,312.2 202.6,312.2 202.6,296.2 367.8,296.2 321.3,255 
	331.9,243 "/>
</svg>
